<mxfile host="app.diagrams.net" modified="2022-09-16T20:00:49.647Z" agent="5.0 (Windows NT 10.0; Win64; x64) AppleWebKit/537.36 (KHTML, like Gecko) Chrome/105.0.0.0 Safari/537.36" etag="jBTUqKsf9IebquzVobjy" version="20.3.2" type="github" pages="2">
  <diagram id="H3ayFS31ZlGtVwvTe3hw" name="workflow">
    <mxGraphModel dx="1422" dy="831" grid="1" gridSize="10" guides="1" tooltips="1" connect="1" arrows="1" fold="1" page="1" pageScale="1" pageWidth="827" pageHeight="1169" background="none" math="0" shadow="0">
      <root>
        <mxCell id="0" />
        <mxCell id="1" parent="0" />
        <mxCell id="6YyZvDqqhlKp5qcBbaNV-4" value="" style="endArrow=classic;html=1;rounded=0;strokeWidth=1;" edge="1" parent="1">
          <mxGeometry width="50" height="50" relative="1" as="geometry">
            <mxPoint x="670" y="239" as="sourcePoint" />
            <mxPoint x="403.5" y="239" as="targetPoint" />
          </mxGeometry>
        </mxCell>
        <mxCell id="_aqXfd5zFj1tQn6VUyh_-2" value="" style="endArrow=classic;html=1;rounded=0;strokeWidth=1;" edge="1" parent="1">
          <mxGeometry width="50" height="50" relative="1" as="geometry">
            <mxPoint x="670" y="400" as="sourcePoint" />
            <mxPoint x="403.5" y="400" as="targetPoint" />
          </mxGeometry>
        </mxCell>
        <mxCell id="_aqXfd5zFj1tQn6VUyh_-10" value="" style="endArrow=none;html=1;rounded=0;dashed=1;strokeWidth=3;" edge="1" parent="1" target="_aqXfd5zFj1tQn6VUyh_-9">
          <mxGeometry width="50" height="50" relative="1" as="geometry">
            <mxPoint x="394" y="720" as="sourcePoint" />
            <mxPoint x="393.5" y="410" as="targetPoint" />
          </mxGeometry>
        </mxCell>
        <mxCell id="_aqXfd5zFj1tQn6VUyh_-12" value="" style="points=[[0.25,0,0],[0.5,0,0],[0.75,0,0],[1,0.25,0],[1,0.5,0],[1,0.75,0],[0.75,1,0],[0.5,1,0],[0.25,1,0],[0,0.75,0],[0,0.5,0],[0,0.25,0]];shape=mxgraph.bpmn.task;whiteSpace=wrap;rectStyle=rounded;size=10;taskMarker=abstract;isLoopStandard=1;fillColor=#a0522d;strokeColor=#6D1F00;fontColor=#ffffff;" vertex="1" parent="1">
          <mxGeometry x="80" y="520" width="630" height="160" as="geometry" />
        </mxCell>
        <mxCell id="_aqXfd5zFj1tQn6VUyh_-13" value="" style="endArrow=classic;html=1;rounded=0;strokeWidth=1;" edge="1" parent="1">
          <mxGeometry width="50" height="50" relative="1" as="geometry">
            <mxPoint x="670" y="560" as="sourcePoint" />
            <mxPoint x="403.5" y="560" as="targetPoint" />
          </mxGeometry>
        </mxCell>
        <mxCell id="6YyZvDqqhlKp5qcBbaNV-8" value="" style="rounded=0;whiteSpace=wrap;html=1;" vertex="1" parent="1">
          <mxGeometry x="663.5" y="230" width="20" height="420" as="geometry" />
        </mxCell>
        <mxCell id="u-FmV_C77MNQi896wa1D-7" value="" style="endArrow=none;html=1;rounded=0;dashed=1;strokeWidth=3;startArrow=none;" edge="1" parent="1" source="6YyZvDqqhlKp5qcBbaNV-8">
          <mxGeometry width="50" height="50" relative="1" as="geometry">
            <mxPoint x="673.5" y="1240" as="sourcePoint" />
            <mxPoint x="673.5" y="200" as="targetPoint" />
          </mxGeometry>
        </mxCell>
        <mxCell id="u-FmV_C77MNQi896wa1D-8" value="" style="sketch=0;outlineConnect=0;fontColor=#232F3E;gradientColor=none;fillColor=#3F8624;strokeColor=none;dashed=0;verticalLabelPosition=bottom;verticalAlign=top;align=center;html=1;fontSize=12;fontStyle=0;aspect=fixed;pointerEvents=1;shape=mxgraph.aws4.mqtt_protocol;" vertex="1" parent="1">
          <mxGeometry x="356" y="100" width="78" height="78" as="geometry" />
        </mxCell>
        <mxCell id="u-FmV_C77MNQi896wa1D-9" value="" style="outlineConnect=0;dashed=0;verticalLabelPosition=bottom;verticalAlign=top;align=center;html=1;shape=mxgraph.aws3.management_console;fillColor=#D2D3D3;gradientColor=none;" vertex="1" parent="1">
          <mxGeometry x="632" y="100" width="83" height="83" as="geometry" />
        </mxCell>
        <mxCell id="u-FmV_C77MNQi896wa1D-10" value="" style="sketch=0;outlineConnect=0;fontColor=#232F3E;gradientColor=none;fillColor=#3F8624;strokeColor=none;dashed=0;verticalLabelPosition=bottom;verticalAlign=top;align=center;html=1;fontSize=12;fontStyle=0;aspect=fixed;pointerEvents=1;shape=mxgraph.aws4.iot_thing_plc;" vertex="1" parent="1">
          <mxGeometry x="73.5" y="102.5" width="78" height="78" as="geometry" />
        </mxCell>
        <mxCell id="6YyZvDqqhlKp5qcBbaNV-2" value="" style="endArrow=none;html=1;rounded=0;dashed=1;strokeWidth=3;startArrow=none;" edge="1" parent="1" source="6YyZvDqqhlKp5qcBbaNV-28">
          <mxGeometry width="50" height="50" relative="1" as="geometry">
            <mxPoint x="393" y="1240" as="sourcePoint" />
            <mxPoint x="393" y="200" as="targetPoint" />
          </mxGeometry>
        </mxCell>
        <mxCell id="6YyZvDqqhlKp5qcBbaNV-3" value="" style="endArrow=none;html=1;rounded=0;dashed=1;strokeWidth=3;startArrow=none;" edge="1" parent="1" source="6YyZvDqqhlKp5qcBbaNV-25">
          <mxGeometry width="50" height="50" relative="1" as="geometry">
            <mxPoint x="113.5" y="1240" as="sourcePoint" />
            <mxPoint x="113.5" y="200" as="targetPoint" />
          </mxGeometry>
        </mxCell>
        <mxCell id="6YyZvDqqhlKp5qcBbaNV-6" value="&lt;b&gt;Publish&lt;br&gt;&lt;/b&gt;conf/devices" style="text;html=1;strokeColor=none;fillColor=none;align=center;verticalAlign=middle;whiteSpace=wrap;rounded=0;" vertex="1" parent="1">
          <mxGeometry x="497.75" y="210" width="71.5" height="30" as="geometry" />
        </mxCell>
        <mxCell id="6YyZvDqqhlKp5qcBbaNV-7" value="&lt;b&gt;Payload&lt;/b&gt;: list-devices" style="text;html=1;strokeColor=none;fillColor=none;align=center;verticalAlign=middle;whiteSpace=wrap;rounded=0;" vertex="1" parent="1">
          <mxGeometry x="475.25" y="240" width="116.5" height="30" as="geometry" />
        </mxCell>
        <mxCell id="6YyZvDqqhlKp5qcBbaNV-10" value="" style="rounded=0;whiteSpace=wrap;html=1;" vertex="1" parent="1">
          <mxGeometry x="383.5" y="230" width="20" height="20" as="geometry" />
        </mxCell>
        <mxCell id="6YyZvDqqhlKp5qcBbaNV-12" value="" style="endArrow=none;html=1;rounded=0;dashed=1;strokeWidth=3;" edge="1" parent="1" target="6YyZvDqqhlKp5qcBbaNV-8">
          <mxGeometry width="50" height="50" relative="1" as="geometry">
            <mxPoint x="674" y="720" as="sourcePoint" />
            <mxPoint x="673.5" y="200" as="targetPoint" />
          </mxGeometry>
        </mxCell>
        <mxCell id="6YyZvDqqhlKp5qcBbaNV-24" value="" style="endArrow=classic;html=1;rounded=0;strokeWidth=1;exitX=0;exitY=0.5;exitDx=0;exitDy=0;" edge="1" parent="1" source="6YyZvDqqhlKp5qcBbaNV-10">
          <mxGeometry width="50" height="50" relative="1" as="geometry">
            <mxPoint x="353.5" y="240" as="sourcePoint" />
            <mxPoint x="123.5" y="240" as="targetPoint" />
          </mxGeometry>
        </mxCell>
        <mxCell id="6YyZvDqqhlKp5qcBbaNV-25" value="" style="rounded=0;whiteSpace=wrap;html=1;" vertex="1" parent="1">
          <mxGeometry x="102.5" y="230" width="20" height="100" as="geometry" />
        </mxCell>
        <mxCell id="6YyZvDqqhlKp5qcBbaNV-26" value="" style="endArrow=none;html=1;rounded=0;dashed=1;strokeWidth=3;startArrow=none;" edge="1" parent="1" source="_aqXfd5zFj1tQn6VUyh_-6" target="6YyZvDqqhlKp5qcBbaNV-25">
          <mxGeometry width="50" height="50" relative="1" as="geometry">
            <mxPoint x="113.5" y="1000" as="sourcePoint" />
            <mxPoint x="113.5" y="200" as="targetPoint" />
          </mxGeometry>
        </mxCell>
        <mxCell id="6YyZvDqqhlKp5qcBbaNV-27" value="" style="endArrow=classic;html=1;rounded=0;strokeWidth=1;" edge="1" parent="1">
          <mxGeometry width="50" height="50" relative="1" as="geometry">
            <mxPoint x="122.5" y="320" as="sourcePoint" />
            <mxPoint x="382.5" y="320" as="targetPoint" />
          </mxGeometry>
        </mxCell>
        <mxCell id="6YyZvDqqhlKp5qcBbaNV-28" value="" style="rounded=0;whiteSpace=wrap;html=1;" vertex="1" parent="1">
          <mxGeometry x="383.5" y="310" width="20" height="20" as="geometry" />
        </mxCell>
        <mxCell id="6YyZvDqqhlKp5qcBbaNV-29" value="" style="endArrow=none;html=1;rounded=0;dashed=1;strokeWidth=3;startArrow=none;" edge="1" parent="1" source="_aqXfd5zFj1tQn6VUyh_-3" target="6YyZvDqqhlKp5qcBbaNV-28">
          <mxGeometry width="50" height="50" relative="1" as="geometry">
            <mxPoint x="393.5" y="1000" as="sourcePoint" />
            <mxPoint x="393" y="200" as="targetPoint" />
          </mxGeometry>
        </mxCell>
        <mxCell id="6YyZvDqqhlKp5qcBbaNV-30" value="&lt;b&gt;Publish&lt;/b&gt;&lt;br&gt;status/devices" style="text;html=1;strokeColor=none;fillColor=none;align=center;verticalAlign=middle;whiteSpace=wrap;rounded=0;" vertex="1" parent="1">
          <mxGeometry x="213.5" y="290" width="80" height="30" as="geometry" />
        </mxCell>
        <mxCell id="6YyZvDqqhlKp5qcBbaNV-32" value="&lt;b&gt;Payload&lt;/b&gt;: json of devices" style="text;html=1;strokeColor=none;fillColor=none;align=center;verticalAlign=middle;whiteSpace=wrap;rounded=0;" vertex="1" parent="1">
          <mxGeometry x="183.5" y="320" width="140" height="30" as="geometry" />
        </mxCell>
        <mxCell id="6YyZvDqqhlKp5qcBbaNV-33" value="" style="endArrow=classic;html=1;rounded=0;strokeWidth=1;" edge="1" parent="1">
          <mxGeometry width="50" height="50" relative="1" as="geometry">
            <mxPoint x="403.5" y="320" as="sourcePoint" />
            <mxPoint x="663.5" y="320" as="targetPoint" />
          </mxGeometry>
        </mxCell>
        <mxCell id="6YyZvDqqhlKp5qcBbaNV-35" value="&lt;b&gt;Subscribe&lt;/b&gt; conf/devices" style="text;html=1;strokeColor=none;fillColor=none;align=center;verticalAlign=middle;whiteSpace=wrap;rounded=0;" vertex="1" parent="1">
          <mxGeometry x="220.25" y="210" width="66.5" height="30" as="geometry" />
        </mxCell>
        <mxCell id="6YyZvDqqhlKp5qcBbaNV-36" value="&lt;b&gt;Subscribe&lt;/b&gt;&lt;br&gt;status/devices" style="text;html=1;strokeColor=none;fillColor=none;align=center;verticalAlign=middle;whiteSpace=wrap;rounded=0;" vertex="1" parent="1">
          <mxGeometry x="493.5" y="290" width="80" height="30" as="geometry" />
        </mxCell>
        <mxCell id="_aqXfd5zFj1tQn6VUyh_-1" value="&lt;h1&gt;Workflow&lt;/h1&gt;" style="text;html=1;strokeColor=none;fillColor=none;align=center;verticalAlign=middle;whiteSpace=wrap;rounded=0;" vertex="1" parent="1">
          <mxGeometry x="335" y="20" width="130" height="30" as="geometry" />
        </mxCell>
        <mxCell id="_aqXfd5zFj1tQn6VUyh_-4" value="" style="endArrow=none;html=1;rounded=0;dashed=1;strokeWidth=3;startArrow=none;" edge="1" parent="1" source="_aqXfd5zFj1tQn6VUyh_-9" target="_aqXfd5zFj1tQn6VUyh_-3">
          <mxGeometry width="50" height="50" relative="1" as="geometry">
            <mxPoint x="393.5" y="1000" as="sourcePoint" />
            <mxPoint x="393.5" y="330" as="targetPoint" />
          </mxGeometry>
        </mxCell>
        <mxCell id="_aqXfd5zFj1tQn6VUyh_-5" value="" style="endArrow=classic;html=1;rounded=0;strokeWidth=1;" edge="1" parent="1">
          <mxGeometry width="50" height="50" relative="1" as="geometry">
            <mxPoint x="389" y="399.5" as="sourcePoint" />
            <mxPoint x="122.5" y="399.5" as="targetPoint" />
          </mxGeometry>
        </mxCell>
        <mxCell id="_aqXfd5zFj1tQn6VUyh_-6" value="" style="rounded=0;whiteSpace=wrap;html=1;" vertex="1" parent="1">
          <mxGeometry x="102.5" y="390" width="20" height="100" as="geometry" />
        </mxCell>
        <mxCell id="_aqXfd5zFj1tQn6VUyh_-7" value="" style="endArrow=none;html=1;rounded=0;dashed=1;strokeWidth=3;" edge="1" parent="1" target="_aqXfd5zFj1tQn6VUyh_-6">
          <mxGeometry width="50" height="50" relative="1" as="geometry">
            <mxPoint x="114" y="720" as="sourcePoint" />
            <mxPoint x="112.56944444444434" y="330" as="targetPoint" />
          </mxGeometry>
        </mxCell>
        <mxCell id="_aqXfd5zFj1tQn6VUyh_-3" value="" style="rounded=0;whiteSpace=wrap;html=1;" vertex="1" parent="1">
          <mxGeometry x="383.5" y="390" width="20" height="20" as="geometry" />
        </mxCell>
        <mxCell id="_aqXfd5zFj1tQn6VUyh_-8" value="" style="endArrow=classic;html=1;rounded=0;strokeWidth=1;" edge="1" parent="1">
          <mxGeometry width="50" height="50" relative="1" as="geometry">
            <mxPoint x="122.5" y="480" as="sourcePoint" />
            <mxPoint x="382.5" y="480" as="targetPoint" />
          </mxGeometry>
        </mxCell>
        <mxCell id="_aqXfd5zFj1tQn6VUyh_-9" value="" style="rounded=0;whiteSpace=wrap;html=1;" vertex="1" parent="1">
          <mxGeometry x="383.5" y="470" width="20" height="20" as="geometry" />
        </mxCell>
        <mxCell id="_aqXfd5zFj1tQn6VUyh_-11" value="" style="endArrow=classic;html=1;rounded=0;strokeWidth=1;" edge="1" parent="1">
          <mxGeometry width="50" height="50" relative="1" as="geometry">
            <mxPoint x="403.5" y="479.5" as="sourcePoint" />
            <mxPoint x="663.5" y="479.5" as="targetPoint" />
          </mxGeometry>
        </mxCell>
        <mxCell id="_aqXfd5zFj1tQn6VUyh_-14" value="" style="endArrow=classic;html=1;rounded=0;strokeWidth=1;" edge="1" parent="1">
          <mxGeometry width="50" height="50" relative="1" as="geometry">
            <mxPoint x="389" y="559.5" as="sourcePoint" />
            <mxPoint x="122.5" y="559.5" as="targetPoint" />
          </mxGeometry>
        </mxCell>
        <mxCell id="_aqXfd5zFj1tQn6VUyh_-15" value="" style="rounded=0;whiteSpace=wrap;html=1;" vertex="1" parent="1">
          <mxGeometry x="102.5" y="550" width="20" height="100" as="geometry" />
        </mxCell>
        <mxCell id="_aqXfd5zFj1tQn6VUyh_-17" value="" style="endArrow=classic;html=1;rounded=0;strokeWidth=1;" edge="1" parent="1">
          <mxGeometry width="50" height="50" relative="1" as="geometry">
            <mxPoint x="122.5" y="640" as="sourcePoint" />
            <mxPoint x="382.5" y="640" as="targetPoint" />
          </mxGeometry>
        </mxCell>
        <mxCell id="_aqXfd5zFj1tQn6VUyh_-19" value="" style="endArrow=classic;html=1;rounded=0;strokeWidth=1;" edge="1" parent="1">
          <mxGeometry width="50" height="50" relative="1" as="geometry">
            <mxPoint x="403.5" y="639.5" as="sourcePoint" />
            <mxPoint x="663.5" y="639.5" as="targetPoint" />
          </mxGeometry>
        </mxCell>
        <mxCell id="_aqXfd5zFj1tQn6VUyh_-20" value="" style="endArrow=none;html=1;rounded=0;dashed=1;strokeWidth=3;" edge="1" parent="1">
          <mxGeometry width="50" height="50" relative="1" as="geometry">
            <mxPoint x="393" y="660" as="sourcePoint" />
            <mxPoint x="393" y="520" as="targetPoint" />
          </mxGeometry>
        </mxCell>
        <mxCell id="_aqXfd5zFj1tQn6VUyh_-21" value="&lt;b&gt;Publish&lt;br&gt;&lt;/b&gt;conf/&lt;i&gt;device_id&lt;/i&gt;" style="text;html=1;strokeColor=none;fillColor=none;align=center;verticalAlign=middle;whiteSpace=wrap;rounded=0;" vertex="1" parent="1">
          <mxGeometry x="478.5" y="370" width="110" height="30" as="geometry" />
        </mxCell>
        <mxCell id="_aqXfd5zFj1tQn6VUyh_-24" value="&lt;b&gt;Payload&lt;/b&gt;: get-conf" style="text;html=1;strokeColor=none;fillColor=none;align=center;verticalAlign=middle;whiteSpace=wrap;rounded=0;" vertex="1" parent="1">
          <mxGeometry x="480.25" y="400" width="106.5" height="30" as="geometry" />
        </mxCell>
        <mxCell id="_aqXfd5zFj1tQn6VUyh_-25" value="&lt;b&gt;Subscribe&lt;/b&gt; conf/&lt;i&gt;device_id&lt;/i&gt;" style="text;html=1;strokeColor=none;fillColor=none;align=center;verticalAlign=middle;whiteSpace=wrap;rounded=0;" vertex="1" parent="1">
          <mxGeometry x="210.25" y="370" width="86.5" height="30" as="geometry" />
        </mxCell>
        <mxCell id="_aqXfd5zFj1tQn6VUyh_-26" value="&lt;b&gt;Publish&lt;/b&gt;&lt;br&gt;status/&lt;i&gt;device_id&lt;/i&gt;" style="text;html=1;strokeColor=none;fillColor=none;align=center;verticalAlign=middle;whiteSpace=wrap;rounded=0;" vertex="1" parent="1">
          <mxGeometry x="213.5" y="450" width="86.5" height="30" as="geometry" />
        </mxCell>
        <mxCell id="_aqXfd5zFj1tQn6VUyh_-27" value="&lt;b&gt;Subscribe&lt;/b&gt;&lt;br&gt;status/&lt;i&gt;device_id&lt;/i&gt;" style="text;html=1;strokeColor=none;fillColor=none;align=center;verticalAlign=middle;whiteSpace=wrap;rounded=0;" vertex="1" parent="1">
          <mxGeometry x="493.5" y="450" width="80" height="30" as="geometry" />
        </mxCell>
        <mxCell id="_aqXfd5zFj1tQn6VUyh_-28" value="&lt;b&gt;Payload&lt;/b&gt;: json of device conf" style="text;html=1;strokeColor=none;fillColor=none;align=center;verticalAlign=middle;whiteSpace=wrap;rounded=0;" vertex="1" parent="1">
          <mxGeometry x="176.88" y="480" width="159.75" height="30" as="geometry" />
        </mxCell>
        <mxCell id="_aqXfd5zFj1tQn6VUyh_-16" value="" style="rounded=0;whiteSpace=wrap;html=1;" vertex="1" parent="1">
          <mxGeometry x="383.5" y="550" width="20" height="20" as="geometry" />
        </mxCell>
        <mxCell id="_aqXfd5zFj1tQn6VUyh_-18" value="" style="rounded=0;whiteSpace=wrap;html=1;" vertex="1" parent="1">
          <mxGeometry x="383.5" y="630" width="20" height="20" as="geometry" />
        </mxCell>
        <mxCell id="_aqXfd5zFj1tQn6VUyh_-29" value="&lt;b&gt;Subscribe&lt;/b&gt;&lt;br&gt;status/&lt;i&gt;device_id&lt;/i&gt;" style="text;html=1;strokeColor=none;fillColor=none;align=center;verticalAlign=middle;whiteSpace=wrap;rounded=0;" vertex="1" parent="1">
          <mxGeometry x="493.5" y="610" width="80" height="30" as="geometry" />
        </mxCell>
        <mxCell id="_aqXfd5zFj1tQn6VUyh_-30" value="&lt;b&gt;Publish&lt;/b&gt;&lt;br&gt;status/&lt;i&gt;device_id&lt;/i&gt;" style="text;html=1;strokeColor=none;fillColor=none;align=center;verticalAlign=middle;whiteSpace=wrap;rounded=0;" vertex="1" parent="1">
          <mxGeometry x="213.51" y="610" width="86.5" height="30" as="geometry" />
        </mxCell>
        <mxCell id="_aqXfd5zFj1tQn6VUyh_-31" value="&lt;b&gt;Payload&lt;/b&gt;: json of device conf" style="text;html=1;strokeColor=none;fillColor=none;align=center;verticalAlign=middle;whiteSpace=wrap;rounded=0;" vertex="1" parent="1">
          <mxGeometry x="176.88" y="640" width="159.75" height="30" as="geometry" />
        </mxCell>
        <mxCell id="_aqXfd5zFj1tQn6VUyh_-32" value="&lt;b&gt;Subscribe&lt;/b&gt; conf/&lt;i&gt;device_id&lt;/i&gt;" style="text;html=1;strokeColor=none;fillColor=none;align=center;verticalAlign=middle;whiteSpace=wrap;rounded=0;" vertex="1" parent="1">
          <mxGeometry x="213.51" y="530" width="86.5" height="30" as="geometry" />
        </mxCell>
        <mxCell id="_aqXfd5zFj1tQn6VUyh_-33" value="&lt;b&gt;Publish&lt;br&gt;&lt;/b&gt;conf/&lt;i&gt;device_id&lt;/i&gt;" style="text;html=1;strokeColor=none;fillColor=none;align=center;verticalAlign=middle;whiteSpace=wrap;rounded=0;" vertex="1" parent="1">
          <mxGeometry x="478.5" y="530" width="110" height="30" as="geometry" />
        </mxCell>
        <mxCell id="_aqXfd5zFj1tQn6VUyh_-34" value="&lt;b&gt;Payload&lt;/b&gt;: specific conf" style="text;html=1;strokeColor=none;fillColor=none;align=center;verticalAlign=middle;whiteSpace=wrap;rounded=0;" vertex="1" parent="1">
          <mxGeometry x="470.13" y="560" width="126.75" height="30" as="geometry" />
        </mxCell>
        <mxCell id="_aqXfd5zFj1tQn6VUyh_-35" value="" style="endArrow=none;html=1;rounded=0;strokeWidth=1;" edge="1" parent="1">
          <mxGeometry width="50" height="50" relative="1" as="geometry">
            <mxPoint y="720" as="sourcePoint" />
            <mxPoint x="820" y="720" as="targetPoint" />
          </mxGeometry>
        </mxCell>
      </root>
    </mxGraphModel>
  </diagram>
  <diagram id="z4NgQDLOAPRJOHvZ5ocx" name="topics">
    <mxGraphModel dx="1422" dy="831" grid="1" gridSize="10" guides="1" tooltips="1" connect="1" arrows="1" fold="1" page="1" pageScale="1" pageWidth="827" pageHeight="1169" math="0" shadow="0">
      <root>
        <mxCell id="0" />
        <mxCell id="1" parent="0" />
        <mxCell id="5eCc9PGHtdX62ed0jYY2-1" value="" style="sketch=0;outlineConnect=0;fontColor=#232F3E;gradientColor=none;fillColor=#3F8624;strokeColor=none;dashed=0;verticalLabelPosition=bottom;verticalAlign=top;align=center;html=1;fontSize=12;fontStyle=0;aspect=fixed;pointerEvents=1;shape=mxgraph.aws4.mqtt_protocol;" vertex="1" parent="1">
          <mxGeometry width="78" height="78" as="geometry" />
        </mxCell>
      </root>
    </mxGraphModel>
  </diagram>
</mxfile>
